<svg width="189" height="190" viewBox="0 0 189 190" fill="none" xmlns="http://www.w3.org/2000/svg">
<path d="M88.97 92.8473C86.9319 88.8069 89.6918 86.5528 92.2111 83.7883C88.6303 83.7883 85.6015 83.7883 82.5727 83.7883C81.8933 83.7883 81.0866 83.9726 80.5771 83.6749C79.8553 83.2496 78.9353 82.4983 78.8362 81.7894C78.6947 80.6836 79.6147 79.989 80.8177 79.989C84.9505 79.989 89.0691 79.9039 93.1877 80.0315C94.9286 80.0882 96.1316 79.6062 97.2497 78.2452C99.217 75.8494 101.368 73.6094 103.76 70.9584C102.854 70.9584 102.274 70.9584 101.708 70.9584C84.2994 70.9584 66.8908 70.9584 49.4822 70.9584C46.8639 70.9584 45.7741 70.3771 45.8165 68.9878C45.859 67.6552 46.8922 67.1165 49.4115 67.1165C68.0655 67.1165 86.7196 67.1023 105.36 67.1448C106.732 67.1448 107.652 66.762 108.544 65.713C110.653 63.2178 112.889 60.8362 115.281 58.1709C114.446 58.1284 113.922 58.0859 113.384 58.0859C106.096 58.0859 98.8066 58.0859 91.5176 58.0859C91.0081 58.0859 90.3429 58.2418 90.0315 57.9866C89.4229 57.5046 88.7011 56.81 88.6445 56.1578C88.602 55.6475 89.3805 54.8677 89.9749 54.5275C90.5127 54.2298 91.2911 54.329 91.9705 54.3148C100.279 54.3148 108.587 54.2723 116.895 54.3432C118.338 54.3432 119.286 53.9037 120.221 52.8263C122.995 49.6082 125.854 46.4893 128.727 43.3562C130.765 41.1446 132.944 40.691 135.237 41.9102C137.431 43.0727 138.308 45.3268 137.7 48.1621C135.393 58.979 133.114 69.7959 130.793 80.6128C130.552 81.7611 130.892 82.4557 131.798 83.1929C137.035 87.5027 142.229 91.8691 147.423 96.2356C150.551 98.8724 150.749 101.779 147.947 104.713C134.798 118.521 121.636 132.301 108.459 146.095C106.435 148.208 104.241 148.675 102.062 147.57C99.8398 146.435 98.8915 144.196 99.4576 141.36C99.8539 139.375 100.293 137.405 100.76 135.122C99.953 135.122 99.3019 135.122 98.6509 135.122C93.2302 135.122 87.7953 135.122 82.3746 135.122C81.865 135.122 81.3555 135.151 80.846 135.094C79.643 134.981 78.6947 134.399 78.7796 133.095C78.8504 131.833 79.7704 131.295 81.03 131.309C87.0735 131.309 93.1311 131.238 99.1746 131.366C100.972 131.408 101.807 130.94 102.034 129.111C102.317 126.886 102.854 124.688 103.321 122.278H101.142C83.7899 122.278 66.4379 122.278 49.0859 122.278C46.878 122.278 45.8731 121.697 45.8165 120.421C45.7599 119.089 46.8497 118.436 49.1426 118.436C66.721 118.436 84.2994 118.408 101.878 118.479C103.562 118.479 104.425 118.195 104.624 116.31C104.85 114.084 105.473 111.901 105.968 109.392C105.147 109.392 104.553 109.392 103.958 109.392C98.4244 109.392 92.8763 109.392 87.3424 109.392C86.0403 109.392 84.9221 109.179 84.7806 107.605C84.6674 106.344 85.5732 105.606 87.3424 105.592C91.7441 105.564 96.1599 105.592 100.562 105.578C101.17 105.578 101.793 105.578 102.741 105.578C102.274 105.025 102.048 104.685 101.75 104.416C99.1746 102.119 96.6411 99.7797 93.9803 97.5823C93.2726 97.0011 92.197 96.5758 91.2912 96.5758C75.0714 96.5191 58.8517 96.5333 42.632 96.5333C42.349 96.5333 42.0659 96.5333 41.7828 96.5333C40.4524 96.5333 38.9805 96.6041 38.9805 94.7045C38.9805 92.8048 40.4383 92.8757 41.7828 92.8757C56.757 92.8757 71.7313 92.8757 86.7196 92.8757C87.3707 92.8757 88.0359 92.8757 88.9842 92.8757L88.97 92.8473Z" fill="#FBF9F7"/>
<path d="M94.4618 0.116943C146.631 0.116943 188.85 42.5338 188.822 94.9028C188.794 147.002 146.376 189.292 94.207 189.249C42.0379 189.193 -0.0116343 146.705 0.044979 94.0806C0.101592 42.3921 42.5899 0.116943 94.4618 0.116943ZM184.972 94.7327C184.972 44.7879 144.395 4.01555 94.6175 3.97302C44.727 3.93049 3.92299 44.5753 3.88053 94.3499C3.83807 144.592 44.359 185.379 94.3203 185.393C144.267 185.421 184.958 144.72 184.958 94.7327H184.972Z" fill="#FBF9F7"/>
</svg>
