<svg width="190" height="190" viewBox="0 0 190 190" fill="none" xmlns="http://www.w3.org/2000/svg">
<path d="M95.0902 133.619C94.3401 131.635 93.7174 129.763 92.9389 127.949C90.6178 122.576 87.1785 117.982 82.7627 114.155C82.1965 113.659 81.9842 113.148 81.9984 112.411C82.0267 108.073 81.9701 103.735 82.0267 99.3967C82.055 97.2985 81.3049 95.6257 79.8329 94.1513C74.2141 88.5656 68.6518 82.9516 63.0471 77.366C61.7874 76.1042 61.2779 74.644 61.8016 72.9428C62.7357 69.8665 66.4297 69.0017 68.7792 71.3267C72.8837 75.3812 76.9032 79.5208 81.0359 83.5329C82.1541 84.6245 83.4279 85.7019 84.8291 86.3115C86.485 87.0204 88.3391 87.4598 90.1365 87.5733C93.2078 87.7717 96.3074 87.5732 99.3928 87.6441C103.228 87.715 106.413 86.354 109.102 83.6321C113.122 79.5492 117.198 75.523 121.231 71.4543C122.307 70.3626 123.567 69.7672 125.095 70.0508C126.695 70.3485 127.841 71.2558 128.336 72.8578C128.832 74.4172 128.506 75.8349 127.416 77.0541C127.19 77.3093 126.949 77.5361 126.709 77.7771C121.246 83.2493 115.811 88.7216 110.319 94.1796C108.847 95.654 108.111 97.3269 108.14 99.425C108.196 103.806 108.168 108.172 108.14 112.553C108.14 113.021 107.941 113.63 107.616 113.914C101.601 119.145 97.5104 125.61 95.2883 133.265C95.2742 133.336 95.2176 133.393 95.1044 133.619H95.0902Z" fill="#FBF9F7"/>
<path d="M98.5021 150.844C99.0682 150.306 99.6202 149.824 100.144 149.299C106.4 143.203 112.67 137.107 118.925 130.997C119.223 130.713 119.52 130.401 119.732 130.047C120.185 129.281 120.128 128.502 119.491 127.878C118.855 127.24 118.076 127.183 117.326 127.637C116.944 127.864 116.647 128.232 116.335 128.544C109.938 134.768 103.541 141.006 97.1433 147.229C97.0726 147.3 96.9593 147.357 96.6621 147.555C96.747 146.336 96.8037 145.287 96.9027 144.224C97.6529 136.171 99.79 128.615 104.772 122.08C108.494 117.189 113.25 113.489 118.671 110.752C124.544 107.789 130.559 105.153 136.504 102.346C138.202 101.552 139.858 100.659 141.684 99.7371C141.854 100.999 142.066 102.175 142.179 103.352C143.127 112.284 142.76 121.059 138.839 129.352C134.834 137.83 128.111 143.359 119.591 146.861C113.165 149.512 106.4 150.674 99.4928 150.986C99.2663 150.986 99.0399 150.986 98.8134 150.986C98.7568 150.986 98.6861 150.929 98.5021 150.83V150.844Z" fill="#FBF9F7"/>
<path d="M91.4957 151.085C89.2736 150.887 87.0374 150.773 84.8153 150.49C78.05 149.625 71.5678 147.839 65.5951 144.45C55.985 139.007 50.3095 130.756 48.3139 119.925C47.1109 113.403 47.4081 106.868 48.3564 100.347C48.3847 100.176 48.4838 100.006 48.5404 99.8503C51.4277 101.225 54.2725 102.586 57.1031 103.947C62.4531 106.513 67.9304 108.838 73.1247 111.702C84.5747 118.025 91.0711 127.878 92.8261 140.85C93.1233 143.004 93.3215 145.173 93.6187 147.697C93.0809 147.229 92.7978 147.016 92.543 146.775C86.2024 140.594 79.8617 134.413 73.5493 128.218C72.7992 127.481 72.0349 127.07 71.0442 127.594C70.2233 128.02 69.9827 128.813 70.2657 129.622C70.4356 130.132 70.846 130.586 71.2423 130.968C77.3565 136.951 83.4708 142.919 89.5992 148.888C90.2644 149.54 90.9437 150.15 91.6231 150.787C91.5948 150.887 91.5523 150.986 91.524 151.071L91.4957 151.085Z" fill="#FBF9F7"/>
<path d="M95.1334 69.0301C99.4501 69.0584 102.96 72.5743 102.96 76.884C102.96 81.2221 99.3652 84.7805 95.0201 84.7521C90.7034 84.7096 87.1934 81.1796 87.1934 76.884C87.1934 72.5317 90.76 69.0159 95.1334 69.0301Z" fill="#FBF9F7"/>
<path d="M96.8747 45.9645C96.8747 47.85 96.8747 49.7356 96.8747 51.6211C96.8747 52.9537 96.1812 53.7192 95.049 53.7051C93.9167 53.7051 93.2798 52.9253 93.2656 51.5644C93.2656 47.8359 93.2656 44.0932 93.2656 40.3647C93.2656 39.0321 93.9591 38.2524 95.0914 38.2665C96.2095 38.2665 96.8606 39.0604 96.8747 40.4072C96.8747 42.2502 96.8747 44.1074 96.8747 45.9504V45.9645Z" fill="#FBF9F7"/>
<path d="M121.981 45.6527C121.939 45.8228 121.896 46.1347 121.783 46.4041C120.255 49.7923 118.712 53.1947 117.169 56.583C116.801 57.3769 116.15 57.9581 115.301 57.7029C114.706 57.5186 114.126 56.9799 113.758 56.4554C113.56 56.1577 113.687 55.4914 113.871 55.0802C115.358 51.7062 116.9 48.3605 118.429 45.0006C118.825 44.1216 119.504 43.5971 120.495 43.7955C121.401 43.9798 121.911 44.5894 121.981 45.6669V45.6527Z" fill="#FBF9F7"/>
<path d="M76.7338 56.1719C76.2101 56.6823 75.7572 57.3769 75.1344 57.6463C74.2994 58.0007 73.4927 57.5754 73.0681 56.7248C72.601 55.7891 72.1764 54.8109 71.7518 53.8611C70.6337 51.3943 69.5014 48.9418 68.3975 46.4608C67.9304 45.4117 68.1993 44.4761 69.0485 43.9941C69.8836 43.5121 70.6479 43.668 71.2989 44.3343C71.4546 44.4902 71.5678 44.7029 71.6669 44.9014C73.2238 48.318 74.7806 51.7488 76.3375 55.1795C76.4507 55.4205 76.4932 55.6757 76.5639 55.9309C76.6206 56.016 76.6913 56.101 76.7479 56.1719H76.7338Z" fill="#FBF9F7"/>
<path d="M49.7005 58.3408C50.3799 58.6952 50.9036 58.8654 51.2716 59.1914C53.7342 61.3463 56.1686 63.5153 58.5888 65.7127C59.5371 66.5775 59.6362 67.6975 58.9002 68.4914C58.1784 69.2711 57.1169 69.2853 56.1969 68.463C53.7201 66.2656 51.2716 64.0541 48.8089 61.8567C48.172 61.2754 47.7899 60.5382 48.2428 59.7585C48.5683 59.2056 49.1769 58.837 49.7005 58.355V58.3408Z" fill="#FBF9F7"/>
<path d="M132.469 69.2853C131.931 68.8316 131.28 68.4914 130.955 67.9526C130.53 67.2722 130.714 66.4783 131.337 65.9112C132.752 64.6211 134.182 63.3452 135.611 62.0693C136.701 61.0911 137.776 60.0987 138.895 59.1489C139.829 58.3408 140.89 58.3833 141.598 59.1772C142.32 59.9853 142.249 61.0202 141.315 61.8566C138.866 64.0824 136.404 66.2798 133.927 68.463C133.573 68.7749 133.106 68.9308 132.469 69.2853Z" fill="#FBF9F7"/>
<path d="M95.1044 0.116943C147.274 0.116943 189.493 42.5338 189.465 94.9028C189.436 147.002 147.019 189.292 94.8496 189.249C42.6804 189.193 0.630944 146.705 0.687557 94.0806C0.74417 42.3921 43.2325 0.116943 95.1044 0.116943ZM185.601 94.7327C185.601 44.7879 145.023 4.01555 95.2459 3.97302C45.3554 3.93049 4.55141 44.5753 4.50895 94.3499C4.46649 144.592 44.9874 185.379 94.9487 185.393C144.896 185.421 185.587 144.72 185.587 94.7327H185.601Z" fill="#FBF9F7"/>
</svg>
