<svg width="190" height="223" viewBox="0 0 190 223" fill="none" xmlns="http://www.w3.org/2000/svg">
<path d="M95.2665 33.4572C147.436 33.4572 189.655 75.8741 189.627 128.243C189.598 180.343 147.181 222.632 95.0117 222.589C42.8426 222.533 0.793053 180.045 0.849666 127.421C0.90628 75.7323 43.3945 33.4572 95.2665 33.4572ZM185.777 128.073C185.777 78.1282 145.199 37.3558 95.4222 37.3132C45.5317 37.2707 4.72766 77.9155 4.6852 127.69C4.64275 177.933 45.1637 218.719 95.1249 218.733C145.072 218.762 185.763 178.06 185.763 128.073H185.777Z" fill="#FBF9F7"/>
<path d="M91.0338 41.141C93.2559 37.6535 95.393 34.322 97.5302 30.9762C94.6853 33.4572 91.699 35.7822 89.76 39.1137C89.5618 39.4681 89.208 39.7942 89.1514 40.1628C88.9249 41.6939 87.6794 41.8073 86.5472 42.2042C82.8814 43.4802 79.2299 44.8128 75.5783 46.1312C75.3236 46.2304 75.083 46.4147 74.7716 46.599C74.4885 44.5151 74.9556 42.6154 75.4227 40.7299C76.8946 34.9174 79.5413 29.672 83.2211 24.9511C85.3017 22.2717 87.6936 19.9467 90.3827 17.8911C93.1426 15.7787 95.8176 13.5388 98.6341 11.4974C102.314 8.83213 105.343 5.58565 107.82 1.81463C108.089 1.38932 108.301 0.907312 108.655 0.56707C108.952 0.283534 109.433 -0.0425314 109.773 0.0141757C110.084 0.0708828 110.438 0.56707 110.551 0.949843C111.429 3.68596 112.349 6.42207 113.085 9.20072C113.962 12.5039 114.939 15.8071 115.392 19.1812C116.198 25.1212 115.717 31.0329 113.509 36.6753C112.575 39.057 111.259 41.226 109.476 43.069C109.235 43.3242 108.57 43.4093 108.216 43.2675C103.616 41.3536 98.8747 40.418 93.8927 40.9425C93.0294 41.0276 92.1802 41.0701 91.0196 41.1552L91.0338 41.141Z" fill="#39B54A"/>
<path d="M138.518 89.0016C135.886 86.4498 132.913 84.2666 130.026 81.8566C130.776 81.2611 131.555 80.6799 132.333 80.0986C129.814 81.2186 127.082 81.9841 124.45 82.5512C120.954 83.3168 117.557 84.1674 114.104 85.1314C114.047 85.1456 113.99 85.1597 113.934 85.1739C106.588 89.1009 98.8181 91.8795 90.411 92.7443C85.6131 93.2405 80.8717 92.957 75.8473 91.5818C76.0171 91.4542 76.187 91.3266 76.3568 91.199C76.1728 91.1565 76.003 91.1282 75.819 91.0856C73.7809 90.6178 72.0259 89.753 70.3841 88.6756C69.5632 89.0867 68.7989 89.0725 67.8648 88.4629C66.3079 87.428 64.7086 86.464 63.1234 85.4575C60.5758 85.8544 57.9858 86.0954 55.3532 86.1663C55.0843 86.1663 54.8013 86.1663 54.5324 86.1663C54.6173 86.2372 54.6881 86.3081 54.773 86.3789C54.0795 87.0169 53.57 87.4989 53.0463 87.9667C41.1716 98.8687 34.1516 112.322 32.5381 128.371C30.7689 146.077 35.666 161.927 47.0594 175.65C53.5275 183.447 61.5383 189.26 70.8653 193.215C72.2948 193.825 73.6252 194.009 74.6867 192.591C75.8897 190.989 75.2528 189.231 73.2714 188.197C69.7896 186.368 66.3221 184.511 62.9253 182.54C62.4299 182.256 62.0053 181.292 62.0761 180.711C62.7837 174.672 61.9204 168.817 58.934 163.628C56.9809 160.24 57.08 157.405 58.7784 154.229C59.3303 153.208 59.8115 152.145 60.2644 151.068C61.6232 147.864 63.18 144.716 64.2557 141.413C65.7701 136.763 64.1 133.304 59.6842 131.234C58.283 130.582 56.8394 129.944 55.3391 129.632C52.4801 129.051 50.7534 127.336 49.4089 124.855C47.2576 120.871 44.894 117.015 42.7002 113.06C42.4596 112.62 42.5587 111.812 42.7851 111.302C46.5924 102.824 52.1405 95.7073 59.1464 90.0649C62.9395 91.9504 66.4778 94.0344 70.2426 95.4804C73.9507 96.8981 77.9136 97.6778 81.8058 98.7411C77.9278 101.973 74.7574 105.702 73.0024 110.55C70.0161 118.815 74.4036 131.064 84.3675 132.737C86.5189 133.091 88.7551 133.29 90.9205 133.106C95.025 132.751 99.1295 132.142 103.206 131.489C104.961 131.206 105.951 131.716 106.277 133.446C106.532 134.778 106.9 136.111 106.942 137.444C107.126 144.107 107.041 150.784 107.423 157.447C107.636 161.02 108.216 164.663 109.334 168.051C110.693 172.177 114.288 173.963 118.548 173.481C126.544 172.56 136.07 163.26 138.009 154.64C138.872 150.812 137.683 147.197 137.343 143.483C136.919 138.833 136.735 134.268 140.259 130.511C143.444 127.109 147.364 124.798 151.511 122.501C153.124 129.987 153.252 137.302 152.035 144.674C147.138 174.332 119.539 195.384 89.5618 192.322C87.4813 192.109 86.2216 192.946 86.0235 194.675C85.8112 196.518 86.9152 197.837 89.0665 197.823C94.289 197.78 99.5824 198.078 104.72 197.341C133.904 193.144 156.153 168.987 158.163 139.358C159.508 119.567 152.728 102.796 138.546 89.03L138.518 89.0016ZM44.526 127.449C46.5074 131.376 49.423 134.013 53.8105 134.949C54.9286 135.19 56.0184 135.657 57.0799 136.125C59.2312 137.075 59.6983 137.883 58.8774 140.081C57.7452 143.1 56.3581 146.021 55.1127 148.984C54.0795 151.422 53.018 153.846 52.1122 156.327C51.1214 159.035 51.4753 161.601 52.9897 164.11C55.6929 168.618 56.8535 173.268 56.4714 177.365C39.2892 162.182 34.279 137.174 40.0394 119.184C41.5962 122.034 43.1389 124.699 44.526 127.463V127.449ZM141.986 121.764C133.126 127.293 130.139 135.26 131.979 145.397C133.734 155.108 129.743 162.877 121.11 166.988C120.416 167.314 119.694 167.626 118.944 167.824C116.397 168.519 114.571 167.725 114.019 165.188C113.339 162.055 112.915 158.822 112.787 155.604C112.575 150.373 112.872 145.113 112.618 139.882C112.462 136.82 111.967 133.687 111.061 130.766C109.872 126.953 107.268 125.549 103.276 125.989C98.7332 126.485 94.2041 127.364 89.6468 127.562C80.1074 127.959 74.7433 119.297 78.961 110.621C80.5179 107.403 82.9239 104.88 85.7263 102.739C87.6795 101.25 89.6609 99.7902 91.7273 98.4859C92.4916 98.0039 93.5531 97.9755 94.5013 97.8054C104.777 96.0617 114.104 91.9504 122.879 86.464C124.308 85.5709 125.271 85.6276 126.644 86.5491C137.811 94.0344 145.581 104.1 149.968 116.845C147.152 118.589 144.576 120.176 142 121.778L141.986 121.764Z" fill="#FBF9F7"/>
<path d="M149.953 116.831C147.137 118.574 144.561 120.162 141.985 121.764C133.125 127.293 130.139 135.26 131.978 145.397C133.733 155.108 129.742 162.877 121.109 166.988C120.415 167.314 119.693 167.626 118.943 167.824C116.396 168.519 114.57 167.725 114.018 165.188C113.339 162.054 112.914 158.822 112.787 155.604C112.574 150.373 112.871 145.113 112.617 139.882C112.461 136.82 111.966 133.687 111.06 130.766C109.871 126.953 107.267 125.549 103.275 125.989C98.7323 126.485 94.2032 127.364 89.6458 127.562C80.1065 127.959 74.7424 119.297 78.9601 110.621C80.517 107.403 82.923 104.88 85.7254 102.739C87.6785 101.25 89.66 99.7901 91.7264 98.4858C92.4907 98.0038 93.5521 97.9755 94.5004 97.8054C104.776 96.0616 114.103 91.9504 122.878 86.4639C124.307 85.5708 125.27 85.6275 126.643 86.549C137.81 94.0343 145.58 104.1 149.967 116.845L149.953 116.831Z" fill="#FBF9F7"/>
<path d="M56.4704 177.351C39.2882 162.168 34.278 137.16 40.0384 119.17C41.5953 122.019 43.1379 124.685 44.525 127.449C46.5064 131.376 49.422 134.013 53.8095 134.949C54.9277 135.19 56.0175 135.658 57.079 136.125C59.2303 137.075 59.6973 137.883 58.8765 140.081C57.7442 143.1 56.3572 146.021 55.1117 148.984C54.0785 151.422 53.017 153.846 52.1112 156.327C51.1204 159.035 51.4743 161.601 52.9887 164.11C55.692 168.618 56.8525 173.268 56.4704 177.366V177.351Z" fill="#FBF9F7"/>
<path d="M95.1664 71.0823C95.8174 70.8839 96.4402 70.6429 97.1054 70.5011C99.8087 69.9198 102.498 69.2535 105.215 68.8566C110.735 68.0343 116.255 67.7933 121.761 69.211C126.261 70.3735 130.592 71.8762 134.399 74.584C135.73 75.5338 136.947 76.7389 137.909 78.0715C139.296 79.9712 138.348 81.4881 136.055 82.1544C132.885 83.0901 129.729 84.1817 126.714 85.5426C123.105 87.173 119.637 89.1577 116.127 91.0007C113.311 92.4893 110.551 94.0629 107.706 95.4806C102.753 97.9615 97.5725 99.6343 92.0102 100.329C85.9101 101.08 79.9091 100.811 73.993 99.3792C68.6006 98.0607 63.463 95.9342 58.5942 93.2123C52.3951 89.739 47.0027 85.2024 41.5819 80.6942C38.3691 78.0148 35.0572 75.463 31.8727 72.7694C31.2924 72.2732 30.7263 71.2666 30.8112 70.5861C30.9245 69.693 31.7878 69.2961 32.8918 69.1543C35.0855 68.8708 37.2793 68.332 39.3881 67.6374C42.6576 66.5599 45.927 65.4116 49.069 64.0223C52.0979 62.6755 54.9851 60.9743 57.929 59.4007C60.1794 58.1957 62.4298 56.9764 64.666 55.7147C66.8315 54.4955 68.8978 53.092 71.1199 51.9862C74.9696 50.0724 78.8618 48.2152 82.8247 46.5565C85.4289 45.4649 88.1322 44.4867 90.8921 43.9763C94.2747 43.3526 97.7423 43.1966 101.196 42.9982C104.932 42.7713 108.57 43.6219 112.037 44.8128C115.278 45.9327 118.449 47.3788 121.407 49.0942C125.171 51.2916 128.837 53.7016 132.276 56.381C135.673 59.0321 138.801 62.0234 141.887 65.043C146.331 69.4237 150.081 74.4139 153.506 79.6026C155.728 82.9483 157.455 86.6343 159.323 90.2068C159.621 90.7739 159.748 91.5394 159.635 92.1632C159.55 92.6452 159.026 93.3115 158.587 93.4107C158.149 93.51 157.314 93.1697 157.087 92.7728C156.238 91.3268 155.714 89.6823 154.809 88.2788C152.969 85.4292 151.143 82.523 148.991 79.9145C145.481 75.6614 141.122 72.3299 136.409 69.4945C132.333 67.0561 127.931 65.4825 123.162 64.8729C119.312 64.3767 115.533 64.5894 111.726 65.0714C106.942 65.6668 102.441 67.3113 97.8697 68.6865C97.1479 68.8991 96.426 69.1401 95.7467 69.452C95.4495 69.5938 95.2655 69.9765 95.0249 70.2459C95.0815 70.5294 95.1239 70.813 95.1806 71.1107L95.1664 71.0823Z" fill="#39B54A"/>
</svg>
