<svg width="189" height="190" viewBox="0 0 189 190" fill="none" xmlns="http://www.w3.org/2000/svg">
<path d="M94.4246 0.861694C146.594 0.861694 188.813 43.2786 188.785 95.6476C188.757 147.747 146.339 190.037 94.1699 189.994C42.0007 189.937 -0.0487437 147.449 0.0078696 94.8253C0.0644829 43.1368 42.5527 0.861694 94.4246 0.861694ZM184.921 95.4774C184.921 45.5327 144.343 4.7603 94.5662 4.71777C44.6758 4.67524 3.87174 45.32 3.82928 95.0947C3.78682 145.337 44.3077 186.124 94.269 186.138C144.216 186.166 184.907 145.465 184.907 95.4774H184.921Z" fill="#FBF9F7"/>
<path d="M69.416 139.468C69.416 134.747 69.3452 130.593 69.416 126.44C69.6142 116.587 77.7665 108.931 87.4898 109.385C96.647 109.81 103.681 117.423 103.794 127.106C103.865 133.088 103.809 139.085 103.809 145.068C103.809 145.734 103.809 146.4 103.809 147.265C110.461 145.607 116.009 142.559 120.835 138.192C125.293 134.166 128.648 129.346 130.912 123.76C131.025 123.462 131.167 123.179 131.28 122.895C131.776 121.619 132.752 121.095 133.983 121.577C135.243 122.073 135.455 123.122 134.974 124.398C132.611 130.636 129.016 136.037 124.161 140.588C115.91 148.314 106.073 152.397 94.8212 152.511C76.2804 152.681 60.5277 141.453 53.9323 124.937C53.3944 123.604 53.1114 122.229 54.7674 121.591C56.3808 120.967 57.1593 122.073 57.6971 123.434C59.8343 128.92 63.1036 133.656 67.3496 137.696C67.8733 138.206 68.4536 138.66 69.3877 139.482L69.416 139.468Z" fill="#FBF9F7"/>
<path d="M151.123 69.7182C150.599 75.8142 148.66 81.2723 143.806 85.3126C137.861 90.2603 130.077 89.6791 124.699 83.9233C120.778 79.727 119.122 74.6234 118.868 68.981C118.797 67.5208 119.32 66.3725 120.863 66.3441C122.321 66.3158 122.774 67.4216 122.845 68.7967C123.057 72.6103 123.934 76.2537 126.157 79.4576C130.955 86.3334 139.036 86.3334 143.834 79.4718C145.915 76.4947 146.82 73.1348 147.132 69.5764C147.344 67.2231 147.981 66.0748 149.283 66.3016C151.222 66.656 151.18 68.1871 151.109 69.704L151.123 69.7182Z" fill="#FBF9F7"/>
<path d="M69.9112 69.5057C69.4017 75.5166 67.5476 80.9463 62.8629 85.0434C56.9468 90.2321 48.9361 89.7785 43.4587 83.9093C39.51 79.6704 37.7549 74.5243 37.6417 68.7685C37.6133 67.3508 38.1653 66.3159 39.609 66.3159C41.0385 66.3159 41.5621 67.365 41.6187 68.7685C41.7461 72.6813 42.7227 76.3531 45.0156 79.5854C49.7428 86.2485 57.7111 86.2626 62.4807 79.6279C64.7169 76.509 65.6511 72.9506 65.9059 69.1938C66.005 67.6911 66.203 66.1883 68.0571 66.3301C69.8405 66.4719 70.0386 67.9746 69.9112 69.4915V69.5057Z" fill="#FBF9F7"/>
</svg>
