<svg width="189" height="190" viewBox="0 0 189 190" fill="none" xmlns="http://www.w3.org/2000/svg">
<path d="M94.5321 0.861694C146.701 0.861694 188.921 43.2786 188.892 95.6476C188.864 147.747 146.447 190.037 94.2774 189.994C42.1082 189.937 0.0586782 147.449 0.115291 94.8253C0.171905 43.1368 42.6602 0.861694 94.5321 0.861694ZM185.043 95.4774C185.043 45.5327 144.465 4.7603 94.6878 4.71777C44.7973 4.67524 3.99333 45.32 3.95087 95.0947C3.90841 145.337 44.4293 186.124 94.3906 186.138C144.338 186.166 185.029 145.465 185.029 95.4774H185.043Z" fill="#FBF9F7"/>
<path d="M91.9853 143.466C84.9936 143.466 77.9878 143.693 71.0102 143.409C61.4567 143.026 54.6772 138.107 51.0964 129.346C47.5298 120.627 49.0584 112.475 55.4274 105.444C62.221 97.9442 69.1702 90.5722 76.0204 83.1153C76.4309 82.6616 76.7281 81.9244 76.7423 81.3148C76.7989 76.7074 76.7564 72.0857 76.7847 67.4783C76.7847 66.6844 76.5866 66.3016 75.7798 65.9755C72.0151 64.4586 70.0194 60.8152 70.7837 57.0584C71.548 53.3157 74.775 50.8206 78.8653 50.8064C87.6545 50.8064 96.4437 50.8064 105.247 50.8064C109.224 50.8064 112.394 53.3157 113.187 57.0158C113.98 60.7443 111.984 64.4444 108.233 65.9614C107.455 66.2733 107.186 66.6277 107.2 67.4357C107.228 72.0432 107.129 76.6648 107.285 81.2723C107.313 82.2079 108.262 83.1152 108.799 84.0226C109.932 85.9506 111.559 86.0357 113.64 85.7238C119.429 84.8306 125.246 85.1 131.02 86.064C131.983 86.22 132.223 86.6736 132.308 87.4959C132.973 93.9747 132.591 100.397 131.303 106.79C131.133 107.627 131.247 108.704 131.657 109.442C139.625 123.491 130.85 141.283 114.857 143.338C113.498 143.508 112.111 143.48 110.724 143.48C104.469 143.48 98.227 143.48 91.9713 143.48C91.9713 143.466 91.9713 143.452 91.9713 143.437L91.9853 143.466ZM81.5261 61.6658C81.5261 69.1228 81.5544 76.3388 81.4836 83.5547C81.4836 84.136 80.9741 84.8023 80.5495 85.2701C73.2889 93.1382 65.9998 100.992 58.7392 108.846C56.0642 111.738 54.5074 115.183 54.1819 119.11C53.276 130.168 61.9945 138.929 72.4679 138.759C85.489 138.546 98.5242 138.589 111.559 138.759C120.957 138.872 128.359 132.209 129.704 123.193C130.03 121.038 129.959 116.743 128.628 114.985C128.586 115.013 128.529 115.041 128.515 115.084C128.274 115.552 128.02 116.02 127.779 116.487C124.665 122.527 119.952 126.851 113.697 129.417C104.44 133.216 94.8444 133.287 85.1352 131.912C84.3284 131.798 84.0453 131.387 83.9604 130.565C83.0971 121.69 83.7057 112.986 86.9751 104.621C89.919 97.1219 95.0283 91.6497 102.544 88.545C103.45 88.1764 104.355 87.8078 105.374 87.3966C104.879 86.8579 104.568 86.4326 104.157 86.0924C102.784 84.9582 102.36 83.5831 102.402 81.7826C102.515 75.6866 102.445 69.5764 102.445 63.4804V61.6516C103.435 61.6516 104.228 61.6516 105.006 61.6516C107.2 61.6233 108.502 60.5175 108.531 58.6603C108.545 56.7323 107.214 55.5698 104.936 55.5698C99.8971 55.5698 94.8727 55.5698 89.8341 55.5698C86.0693 55.5698 82.3186 55.5414 78.5538 55.5698C76.6856 55.584 75.4259 56.9024 75.4401 58.6603C75.4542 60.3474 76.6856 61.5666 78.4831 61.6375C79.4172 61.6658 80.3655 61.6375 81.5261 61.6375V61.6658ZM91.8155 127.517L92.042 128.226C96.5994 127.786 101.227 127.63 105.714 126.822C113.852 125.362 120.25 121.222 123.929 113.524C126.151 108.874 127.142 103.913 127.553 98.8231C127.68 97.1928 127.722 95.5625 127.822 93.4785C115.551 105.075 103.676 116.289 91.8014 127.517H91.8155ZM88.4046 123.59C88.532 123.647 88.6735 123.703 88.8008 123.746C100.52 112.66 112.239 101.588 123.972 90.5014C123.929 90.3596 123.901 90.2036 123.859 90.0619C122.457 90.0619 121.042 89.9626 119.641 90.076C116.853 90.3029 114.036 90.473 111.29 90.9692C105.785 91.9474 100.633 93.9038 96.7126 98.0718C89.9473 105.259 88.6876 114.29 88.3904 123.59H88.4046Z" fill="#FBF9F7"/>
<path d="M81.5243 61.6659C80.3779 61.6659 79.4296 61.6943 78.4813 61.6659C76.6839 61.595 75.4525 60.3758 75.4383 58.6888C75.4242 56.9309 76.6839 55.6124 78.5521 55.5982C82.3169 55.5557 86.0676 55.5982 89.8323 55.5982C94.8709 55.5982 99.8953 55.5982 104.934 55.5982C107.213 55.5982 108.543 56.7607 108.529 58.6888C108.515 60.5459 107.198 61.6517 105.005 61.6801C104.226 61.6801 103.434 61.6801 102.443 61.6801V63.5089C102.443 69.6049 102.514 75.7151 102.4 81.8111C102.372 83.6115 102.783 85.0009 104.155 86.1208C104.552 86.4469 104.877 86.8864 105.373 87.4251C104.354 87.8362 103.448 88.2048 102.542 88.5734C95.0407 91.6781 89.9172 97.1362 86.9733 104.65C83.6898 113.014 83.0953 121.719 83.9587 130.593C84.0436 131.43 84.3267 131.827 85.1334 131.94C94.8426 133.329 104.453 133.244 113.695 129.445C119.951 126.879 124.664 122.555 127.777 116.516C128.018 116.048 128.259 115.58 128.513 115.112C128.542 115.07 128.584 115.041 128.627 115.013C129.943 116.771 130.014 121.067 129.702 123.221C128.358 132.238 120.955 138.901 111.558 138.788C98.5224 138.632 85.4872 138.589 72.4662 138.788C61.9786 138.958 53.2743 130.182 54.1801 119.139C54.5056 115.212 56.0625 111.767 58.7374 108.875C65.9981 101.006 73.2871 93.1667 80.5478 85.2986C80.9865 84.8307 81.4818 84.1644 81.4818 83.5832C81.5526 76.3672 81.5243 69.1654 81.5243 61.6943V61.6659Z" fill="#FBF9F7"/>
</svg>
