<svg width="17" height="17" viewBox="0 0 17 17" fill="none" xmlns="http://www.w3.org/2000/svg">
<path d="M6.4162 1.36697C5.07745 1.35989 3.77411 2.64906 4.36911 4.24989H2.1237C1.74797 4.24989 1.38764 4.39914 1.12196 4.66482C0.856287 4.9305 0.707031 5.29083 0.707031 5.66656V7.08322C0.707031 7.27108 0.781659 7.45125 0.914497 7.58409C1.04734 7.71693 1.2275 7.79156 1.41536 7.79156H7.79036V5.66656H9.20703V7.79156H15.582C15.7699 7.79156 15.9501 7.71693 16.0829 7.58409C16.2157 7.45125 16.2904 7.27108 16.2904 7.08322V5.66656C16.2904 5.29083 16.1411 4.9305 15.8754 4.66482C15.6098 4.39914 15.2494 4.24989 14.8737 4.24989H12.6283C13.457 1.93364 10.3404 0.297389 8.90245 2.29489L8.4987 2.83322L8.09495 2.28072C7.6487 1.65031 7.03245 1.37406 6.4162 1.36697ZM6.3737 2.83322C7.00411 2.83322 7.32286 3.59822 6.87661 4.04447C6.43036 4.49072 5.66536 4.17197 5.66536 3.54156C5.66536 3.35369 5.73999 3.17353 5.87283 3.04069C6.00567 2.90785 6.18584 2.83322 6.3737 2.83322ZM10.6237 2.83322C11.2541 2.83322 11.5729 3.59822 11.1266 4.04447C10.6804 4.49072 9.91536 4.17197 9.91536 3.54156C9.91536 3.35369 9.98999 3.17353 10.1228 3.04069C10.2557 2.90785 10.4358 2.83322 10.6237 2.83322ZM1.41536 8.49989V14.1666C1.41536 14.5423 1.56462 14.9026 1.8303 15.1683C2.09597 15.434 2.45631 15.5832 2.83203 15.5832H14.1654C14.5411 15.5832 14.9014 15.434 15.1671 15.1683C15.4328 14.9026 15.582 14.5423 15.582 14.1666V8.49989H9.20703V14.1666H7.79036V8.49989H1.41536Z" fill="white"/>
</svg>
