<svg width="41" height="41" viewBox="0 0 41 41" fill="none" xmlns="http://www.w3.org/2000/svg">
<path d="M35.8754 35.8749L28.4561 28.4556M28.4561 28.4556C29.7252 27.1865 30.7319 25.6798 31.4187 24.0217C32.1055 22.3635 32.459 20.5863 32.459 18.7915C32.459 16.9968 32.1055 15.2195 31.4187 13.5614C30.7319 11.9032 29.7252 10.3966 28.4561 9.12749C27.187 7.85839 25.6803 6.85168 24.0222 6.16485C22.364 5.47802 20.5868 5.12451 18.792 5.12451C16.9972 5.12451 15.22 5.47802 13.5619 6.16485C11.9037 6.85168 10.3971 7.85839 9.12798 9.12749C6.56491 11.6906 5.125 15.1668 5.125 18.7915C5.125 22.4162 6.56491 25.8925 9.12798 28.4556C11.691 31.0186 15.1673 32.4585 18.792 32.4585C22.4167 32.4585 25.893 31.0186 28.4561 28.4556Z" stroke="#064F28" stroke-width="2" stroke-linecap="round" stroke-linejoin="round"/>
</svg>
