<svg width="18" height="18" viewBox="0 0 18 18" fill="none" xmlns="http://www.w3.org/2000/svg">
<path d="M15 6H12.75V3H0.75V12.75H2.25C2.25 13.995 3.255 15 4.5 15C5.745 15 6.75 13.995 6.75 12.75H11.25C11.25 13.995 12.255 15 13.5 15C14.745 15 15.75 13.995 15.75 12.75H17.25V9L15 6ZM4.5 13.5C4.0875 13.5 3.75 13.1625 3.75 12.75C3.75 12.3375 4.0875 12 4.5 12C4.9125 12 5.25 12.3375 5.25 12.75C5.25 13.1625 4.9125 13.5 4.5 13.5ZM14.625 7.125L16.095 9H12.75V7.125H14.625ZM13.5 13.5C13.0875 13.5 12.75 13.1625 12.75 12.75C12.75 12.3375 13.0875 12 13.5 12C13.9125 12 14.25 12.3375 14.25 12.75C14.25 13.1625 13.9125 13.5 13.5 13.5Z" fill="#056D36"/>
</svg>
