<svg width="30" height="30" viewBox="0 0 30 30" fill="none" xmlns="http://www.w3.org/2000/svg">
<path d="M23.104 20.9588C21.3955 21.369 19.6119 21.3491 17.9129 20.9009C16.2139 20.4527 14.6526 19.5901 13.3688 18.3904C12.085 17.1907 11.1188 15.6913 10.5567 14.0266C9.99455 12.3618 9.85406 10.5836 10.1478 8.85126C10.1038 8.89513 10.0566 8.93566 10.0065 8.97251C9.65654 9.23876 9.21904 9.33751 8.34404 9.53501L7.55029 9.71501C4.47529 10.4113 2.93779 10.7588 2.57154 11.935C2.20654 13.11 3.25404 14.3363 5.35029 16.7875L5.89279 17.4213C6.48779 18.1175 6.78654 18.4663 6.92029 18.8963C7.05404 19.3275 7.00904 19.7925 6.91904 20.7213L6.83654 21.5675C6.52029 24.8388 6.36154 26.4738 7.31904 27.2C8.27654 27.9263 9.71654 27.265 12.594 25.9388L13.3403 25.5963C14.1578 25.2188 14.5665 25.0313 15.0003 25.0313C15.434 25.0313 15.8428 25.2188 16.6615 25.5963L17.4053 25.9388C20.284 27.2638 21.724 27.9263 22.6803 27.2013C23.639 26.4738 23.4803 24.8388 23.164 21.5675L23.104 20.9588Z" fill="#DD1B1B"/>
<path opacity="0.5" d="M11.4414 6.76L11.0314 7.495C10.5814 8.3025 10.3564 8.70625 10.0064 8.9725C10.0564 8.935 10.1034 8.89458 10.1476 8.85125C9.85381 10.5838 9.99429 12.3621 10.5565 14.027C11.1187 15.6919 12.085 17.1913 13.369 18.3911C14.6529 19.5908 16.2144 20.4533 17.9136 20.9015C19.6127 21.3496 21.3965 21.3693 23.1051 20.9587L23.0801 20.7212C22.9914 19.7925 22.9464 19.3275 23.0801 18.8962C23.2139 18.4662 23.5114 18.1175 24.1076 17.4213L24.6501 16.7875C26.7464 14.3375 27.7939 13.1112 27.4276 11.935C27.0626 10.7588 25.5251 10.41 22.4501 9.715L21.6551 9.535C20.7814 9.3375 20.3439 9.23875 19.9926 8.9725C19.6426 8.70625 19.4176 8.3025 18.9676 7.495L18.5589 6.76C16.9751 3.92 16.1839 2.5 15.0001 2.5C13.8164 2.5 13.0251 3.92 11.4414 6.76Z" fill="#DD1B1B"/>
</svg>
